<svg width="19" height="18" viewBox="0 0 19 18" fill="none" xmlns="http://www.w3.org/2000/svg">
<g clip-path="url(#clip0_3_1362)">
<path d="M7.7433 10.4866C7.7433 11.2621 7.1808 11.5071 6.48973 11.5071H4.67768V9.3817H6.52589C7.27321 9.38571 7.7433 9.69509 7.7433 10.4866V10.4866ZM7.43393 7.17991C7.43393 6.46875 6.88348 6.3 6.27277 6.3H4.6817V8.1H6.39732C7.00402 8.1 7.43393 7.83482 7.43393 7.17991V7.17991ZM12.7496 8.11205C12.0143 8.11205 11.5241 8.57009 11.4759 9.30536H13.975C13.9067 8.56205 13.521 8.11205 12.7496 8.11205ZM18.25 1.92857V16.0714C18.25 17.1362 17.3862 18 16.3214 18H2.17857C1.11384 18 0.25 17.1362 0.25 16.0714V1.92857C0.25 0.863839 1.11384 0 2.17857 0H16.3214C17.3862 0 18.25 0.863839 18.25 1.92857ZM11.1665 6.14732H14.2924V5.38795H11.1665V6.14732ZM9.43884 10.579C9.43884 9.61071 8.9808 8.775 8.03259 8.5058C8.72366 8.17634 9.08527 7.79464 9.08527 7.0192C9.08527 5.48437 7.94018 5.11071 6.6183 5.11071H2.98214V12.825H6.72277C8.125 12.817 9.43884 12.146 9.43884 10.579V10.579ZM15.5179 9.98437C15.5179 8.33304 14.5496 6.95491 12.8018 6.95491C11.0982 6.95491 9.94509 8.23259 9.94509 9.91205C9.94509 11.6518 11.042 12.8451 12.8018 12.8451C14.1357 12.8451 14.9996 12.2464 15.4174 10.9647H14.0634C13.9147 11.4429 13.3161 11.692 12.85 11.692C11.95 11.692 11.4799 11.1656 11.4799 10.2737H15.5058C15.5098 10.1813 15.5179 10.0808 15.5179 9.98437Z" fill="white"/>
</g>
<defs>
<clipPath id="clip0_3_1362">
<rect x="0.25" width="18" height="18" rx="9" fill="white"/>
</clipPath>
</defs>
</svg>
