<svg width="20" height="20" viewBox="0 0 20 20" fill="none" xmlns="http://www.w3.org/2000/svg">
<path d="M10.2857 18C8.08817 18 5.98068 17.127 4.42682 15.5732C2.87295 14.0193 2 11.9118 2 9.71433C2 6.35721 3.92856 3.34722 6.91462 2.04759C7.01985 2.00172 7.13647 1.98862 7.24926 2.00998C7.36206 2.03135 7.4658 2.08619 7.54698 2.16737C7.62815 2.24854 7.68299 2.35229 7.70436 2.46508C7.72572 2.57787 7.71262 2.69449 7.66675 2.79973C7.3239 3.58687 7.14283 4.59507 7.14283 5.71435C7.14283 9.6529 10.3471 12.8572 14.2856 12.8572C15.4049 12.8572 16.4131 12.6761 17.2003 12.3332C17.3055 12.2874 17.4221 12.2743 17.5349 12.2956C17.6477 12.317 17.7515 12.3718 17.8326 12.453C17.9138 12.5342 17.9687 12.6379 17.99 12.7507C18.0114 12.8635 17.9983 12.9801 17.9524 13.0854C16.6528 16.0714 13.6428 18 10.2857 18Z" fill="white"/>
</svg>
