<svg width="19" height="18" viewBox="0 0 19 18" fill="none" xmlns="http://www.w3.org/2000/svg">
<path fill-rule="evenodd" clip-rule="evenodd" d="M15.75 3H3.75C2.925 3 2.2575 3.675 2.2575 4.5L2.25 13.5C2.25 14.325 2.925 15 3.75 15H15.75C16.575 15 17.25 14.325 17.25 13.5V4.5C17.25 3.675 16.575 3 15.75 3ZM15.45 6.1875L10.1475 9.5025C9.9075 9.6525 9.5925 9.6525 9.3525 9.5025L4.05 6.1875C3.8625 6.0675 3.75 5.865 3.75 5.6475C3.75 5.145 4.2975 4.845 4.725 5.1075L9.75 8.25L14.775 5.1075C15.2025 4.845 15.75 5.145 15.75 5.6475C15.75 5.865 15.6375 6.0675 15.45 6.1875Z" fill="white"/>
</svg>
