<svg width="20" height="20" viewBox="0 0 20 20" fill="none" xmlns="http://www.w3.org/2000/svg">
<path d="M7.02056 15.3563C7.02056 15.4289 6.9371 15.487 6.83185 15.487C6.7121 15.4979 6.62863 15.4398 6.62863 15.3563C6.62863 15.2837 6.7121 15.2257 6.81734 15.2257C6.92621 15.2148 7.02056 15.2729 7.02056 15.3563ZM5.89194 15.193C5.86653 15.2656 5.93911 15.3491 6.04798 15.3708C6.14234 15.4071 6.25121 15.3708 6.27298 15.2983C6.29476 15.2257 6.22581 15.1422 6.11694 15.1095C6.02258 15.0841 5.91734 15.1204 5.89194 15.193ZM7.49597 15.1313C7.39073 15.1567 7.31814 15.2257 7.32903 15.3091C7.33992 15.3817 7.43427 15.4289 7.54315 15.4035C7.64839 15.3781 7.72097 15.3091 7.71008 15.2366C7.69919 15.1676 7.60121 15.1204 7.49597 15.1313ZM9.88387 1.22487C4.8504 1.22487 1 5.04624 1 10.0797C1 14.1043 3.53306 17.5483 7.15121 18.7604C7.61573 18.8438 7.77903 18.5571 7.77903 18.3212C7.77903 18.0962 7.76814 16.8551 7.76814 16.093C7.76814 16.093 5.22782 16.6374 4.69435 15.0116C4.69435 15.0116 4.28065 13.9555 3.68548 13.6833C3.68548 13.6833 2.85444 13.1136 3.74355 13.1245C3.74355 13.1245 4.64718 13.197 5.14435 14.0608C5.93911 15.4616 7.27097 15.0587 7.78992 14.8192C7.87339 14.2386 8.10927 13.8358 8.37056 13.5962C6.34194 13.3712 4.29516 13.0773 4.29516 9.58616C4.29516 8.58817 4.57097 8.08737 5.15161 7.44866C5.05726 7.21277 4.74879 6.24019 5.24597 4.98455C6.00444 4.74866 7.75 5.96438 7.75 5.96438C8.47581 5.76116 9.25605 5.65592 10.029 5.65592C10.802 5.65592 11.5823 5.76116 12.3081 5.96438C12.3081 5.96438 14.0536 4.74503 14.8121 4.98455C15.3093 6.24382 15.0008 7.21277 14.9065 7.44866C15.4871 8.091 15.8427 8.5918 15.8427 9.58616C15.8427 13.0882 13.7052 13.3676 11.6766 13.5962C12.0105 13.8829 12.2935 14.4273 12.2935 15.2801C12.2935 16.5031 12.2827 18.0164 12.2827 18.314C12.2827 18.5499 12.4496 18.8366 12.9105 18.7531C16.5395 17.5483 19 14.1043 19 10.0797C19 5.04624 14.9173 1.22487 9.88387 1.22487ZM4.52742 13.7414C4.48024 13.7777 4.49113 13.8612 4.55282 13.9301C4.61089 13.9882 4.69435 14.0136 4.74153 13.9664C4.78871 13.9301 4.77782 13.8466 4.71613 13.7777C4.65806 13.7196 4.5746 13.6942 4.52742 13.7414ZM4.13548 13.4474C4.11008 13.4946 4.14637 13.5527 4.21895 13.589C4.27702 13.6253 4.3496 13.6144 4.375 13.5636C4.4004 13.5164 4.36411 13.4583 4.29153 13.422C4.21895 13.4003 4.16089 13.4112 4.13548 13.4474ZM5.31129 14.7394C5.25323 14.7866 5.275 14.8954 5.35847 14.9644C5.44194 15.0479 5.54718 15.0587 5.59435 15.0007C5.64153 14.9535 5.61976 14.8446 5.54718 14.7757C5.46734 14.6922 5.35847 14.6813 5.31129 14.7394ZM4.89758 14.2059C4.83952 14.2422 4.83952 14.3366 4.89758 14.42C4.95565 14.5035 5.05363 14.5398 5.10081 14.5035C5.15887 14.4563 5.15887 14.362 5.10081 14.2785C5.05 14.195 4.95565 14.1587 4.89758 14.2059Z" fill="white"/>
</svg>
