<svg width="19" height="18" viewBox="0 0 19 18" fill="none" xmlns="http://www.w3.org/2000/svg">
<path d="M9.75 1.62651C12.1355 1.62651 12.4608 1.62651 13.4367 1.62651C14.3042 1.62651 14.738 1.84337 15.0633 1.95181C15.497 2.16868 15.8223 2.27711 16.1476 2.60241C16.4729 2.92771 16.6898 3.25301 16.7982 3.68675C16.9066 4.01205 17.0151 4.44578 17.1235 5.31325C17.1235 6.28916 17.1235 6.50602 17.1235 9C17.1235 11.494 17.1235 11.7108 17.1235 12.6867C17.1235 13.5542 16.9066 13.988 16.7982 14.3133C16.5813 14.747 16.4729 15.0723 16.1476 15.3976C15.8223 15.7229 15.497 15.9398 15.0633 16.0482C14.738 16.1566 14.3042 16.2651 13.4367 16.3735C12.4608 16.3735 12.244 16.3735 9.75 16.3735C7.25602 16.3735 7.03916 16.3735 6.06325 16.3735C5.19578 16.3735 4.76205 16.1566 4.43675 16.0482C4.00301 15.8313 3.67771 15.7229 3.35241 15.3976C3.02711 15.0723 2.81024 14.747 2.70181 14.3133C2.59337 13.988 2.48494 13.5542 2.37651 12.6867C2.37651 11.7108 2.37651 11.494 2.37651 9C2.37651 6.50602 2.37651 6.28916 2.37651 5.31325C2.37651 4.44578 2.59337 4.01205 2.70181 3.68675C2.91868 3.25301 3.02711 2.92771 3.35241 2.60241C3.67771 2.27711 4.00301 2.06024 4.43675 1.95181C4.76205 1.84337 5.19578 1.73494 6.06325 1.62651C7.03916 1.62651 7.36446 1.62651 9.75 1.62651ZM9.75 0C7.25602 0 7.03916 0 6.06325 0C5.08735 0 4.43675 0.216868 3.89458 0.433736C3.35241 0.650603 2.81024 0.975904 2.26807 1.51807C1.7259 2.06024 1.50904 2.49398 1.18374 3.14458C0.966868 3.68675 0.858434 4.33735 0.75 5.31325C0.75 6.28916 0.75 6.61446 0.75 9C0.75 11.494 0.75 11.7108 0.75 12.6867C0.75 13.6627 0.966868 14.3133 1.18374 14.8554C1.4006 15.3976 1.7259 15.9398 2.26807 16.4819C2.81024 17.0241 3.24398 17.241 3.89458 17.5663C4.43675 17.7831 5.08735 17.8916 6.06325 18C7.03916 18 7.36446 18 9.75 18C12.1355 18 12.4608 18 13.4367 18C14.4127 18 15.0633 17.7831 15.6054 17.5663C16.1476 17.3494 16.6898 17.0241 17.2319 16.4819C17.7741 15.9398 17.991 15.506 18.3163 14.8554C18.5331 14.3133 18.6416 13.6627 18.75 12.6867C18.75 11.7108 18.75 11.3855 18.75 9C18.75 6.61446 18.75 6.28916 18.75 5.31325C18.75 4.33735 18.5331 3.68675 18.3163 3.14458C18.0994 2.60241 17.7741 2.06024 17.2319 1.51807C16.6898 0.975904 16.256 0.759037 15.6054 0.433736C15.0633 0.216868 14.4127 0.108434 13.4367 0C12.4608 0 12.244 0 9.75 0Z" fill="white"/>
<path d="M9.75 4.33735C7.14759 4.33735 5.08735 6.39759 5.08735 9C5.08735 11.6024 7.14759 13.6627 9.75 13.6627C12.3524 13.6627 14.4127 11.6024 14.4127 9C14.4127 6.39759 12.3524 4.33735 9.75 4.33735ZM9.75 12.0361C8.1235 12.0361 6.71386 10.7349 6.71386 9C6.71386 7.3735 8.01506 5.96386 9.75 5.96386C11.3765 5.96386 12.7861 7.26506 12.7861 9C12.7861 10.6265 11.3765 12.0361 9.75 12.0361Z" fill="white"/>
<path d="M14.5211 5.31325C15.1199 5.31325 15.6054 4.82778 15.6054 4.22892C15.6054 3.63005 15.1199 3.14458 14.5211 3.14458C13.9222 3.14458 13.4367 3.63005 13.4367 4.22892C13.4367 4.82778 13.9222 5.31325 14.5211 5.31325Z" fill="white"/>
</svg>
