<svg width="20" height="20" viewBox="0 0 20 20" fill="none" xmlns="http://www.w3.org/2000/svg">
<path d="M10 5.2C9.79705 5.2 9.60242 5.11938 9.45891 4.97587C9.3154 4.83237 9.23478 4.63773 9.23478 4.43478V2.76522C9.23478 2.56227 9.3154 2.36763 9.45891 2.22413C9.60242 2.08062 9.79705 2 10 2C10.2029 2 10.3976 2.08062 10.5411 2.22413C10.6846 2.36763 10.7652 2.56227 10.7652 2.76522V4.43478C10.7652 4.63773 10.6846 4.83237 10.5411 4.97587C10.3976 5.11938 10.2029 5.2 10 5.2ZM10 18C9.79705 18 9.60242 17.9194 9.45891 17.7759C9.3154 17.6324 9.23478 17.4377 9.23478 17.2348V15.5652C9.23478 15.3623 9.3154 15.1676 9.45891 15.0241C9.60242 14.8806 9.79705 14.8 10 14.8C10.2029 14.8 10.3976 14.8806 10.5411 15.0241C10.6846 15.1676 10.7652 15.3623 10.7652 15.5652V17.2348C10.7652 17.4377 10.6846 17.6324 10.5411 17.7759C10.3976 17.9194 10.2029 18 10 18ZM13.9353 6.82991C13.784 6.82989 13.6361 6.78502 13.5103 6.70095C13.3845 6.61689 13.2864 6.49742 13.2285 6.35763C13.1705 6.21785 13.1554 6.06403 13.1848 5.91562C13.2143 5.7672 13.2871 5.63086 13.3941 5.52383L14.5746 4.3433C14.7187 4.20292 14.9124 4.12495 15.1136 4.12627C15.3148 4.1276 15.5073 4.20811 15.6496 4.35038C15.7919 4.49266 15.8724 4.68524 15.8737 4.88643C15.8751 5.08763 15.7971 5.28126 15.6567 5.42539L14.4762 6.60591C14.4052 6.67703 14.3209 6.73343 14.2281 6.77187C14.1353 6.81031 14.0358 6.83003 13.9353 6.82991V6.82991ZM4.88417 15.881C4.73282 15.881 4.58487 15.8361 4.45904 15.752C4.33321 15.6679 4.23514 15.5484 4.17725 15.4085C4.11935 15.2687 4.10423 15.1148 4.13378 14.9664C4.16334 14.8179 4.23626 14.6816 4.3433 14.5746L5.52383 13.3941C5.59453 13.3215 5.67895 13.2637 5.77219 13.224C5.86543 13.1843 5.96562 13.1635 6.06696 13.1628C6.16829 13.1621 6.26875 13.1816 6.3625 13.2201C6.45625 13.2585 6.54143 13.3153 6.61309 13.3869C6.68474 13.4586 6.74145 13.5437 6.77992 13.6375C6.8184 13.7312 6.83786 13.8317 6.8372 13.933C6.83653 14.0344 6.81574 14.1346 6.77604 14.2278C6.73633 14.321 6.67851 14.4055 6.60591 14.4762L5.42539 15.6567C5.35441 15.7279 5.27005 15.7844 5.17717 15.8229C5.08429 15.8614 4.98472 15.8811 4.88417 15.881V15.881ZM17.2348 10.7652H15.5652C15.3623 10.7652 15.1676 10.6846 15.0241 10.5411C14.8806 10.3976 14.8 10.2029 14.8 10C14.8 9.79705 14.8806 9.60242 15.0241 9.45891C15.1676 9.3154 15.3623 9.23478 15.5652 9.23478H17.2348C17.4377 9.23478 17.6324 9.3154 17.7759 9.45891C17.9194 9.60242 18 9.79705 18 10C18 10.2029 17.9194 10.3976 17.7759 10.5411C17.6324 10.6846 17.4377 10.7652 17.2348 10.7652ZM4.43478 10.7652H2.76522C2.56227 10.7652 2.36763 10.6846 2.22413 10.5411C2.08062 10.3976 2 10.2029 2 10C2 9.79705 2.08062 9.60242 2.22413 9.45891C2.36763 9.3154 2.56227 9.23478 2.76522 9.23478H4.43478C4.63773 9.23478 4.83237 9.3154 4.97587 9.45891C5.11938 9.60242 5.2 9.79705 5.2 10C5.2 10.2029 5.11938 10.3976 4.97587 10.5411C4.83237 10.6846 4.63773 10.7652 4.43478 10.7652ZM15.1158 15.881C15.0153 15.8811 14.9157 15.8614 14.8228 15.8229C14.7299 15.7844 14.6456 15.7279 14.5746 15.6567L13.3941 14.4762C13.2537 14.332 13.1757 14.1384 13.1771 13.9372C13.1784 13.736 13.2589 13.5434 13.4012 13.4012C13.5434 13.2589 13.736 13.1784 13.9372 13.1771C14.1384 13.1757 14.332 13.2537 14.4762 13.3941L15.6567 14.5746C15.7637 14.6816 15.8367 14.8179 15.8662 14.9664C15.8958 15.1148 15.8806 15.2687 15.8228 15.4085C15.7649 15.5484 15.6668 15.6679 15.541 15.752C15.4151 15.8361 15.2672 15.881 15.1158 15.881V15.881ZM6.0647 6.82991C5.96422 6.83011 5.8647 6.81042 5.77187 6.77197C5.67904 6.73353 5.59474 6.67709 5.52383 6.60591L4.3433 5.42539C4.20292 5.28126 4.12495 5.08763 4.12627 4.88643C4.1276 4.68524 4.20811 4.49266 4.35038 4.35038C4.49266 4.20811 4.68524 4.1276 4.88643 4.12627C5.08763 4.12495 5.28126 4.20292 5.42539 4.3433L6.60591 5.52383C6.71286 5.63086 6.78568 5.7672 6.81516 5.91562C6.84464 6.06403 6.82945 6.21785 6.77153 6.35763C6.7136 6.49742 6.61554 6.61689 6.48973 6.70095C6.36392 6.78502 6.21601 6.82989 6.0647 6.82991V6.82991ZM10 13.5478C9.29831 13.5478 8.61237 13.3397 8.02893 12.9499C7.4455 12.5601 6.99076 12.006 6.72224 11.3577C6.45371 10.7094 6.38345 9.99606 6.52034 9.30785C6.65724 8.61964 6.99514 7.98748 7.49131 7.49131C7.98748 6.99514 8.61964 6.65724 9.30785 6.52034C9.99606 6.38345 10.7094 6.45371 11.3577 6.72224C12.006 6.99076 12.5601 7.4455 12.9499 8.02893C13.3397 8.61237 13.5478 9.29831 13.5478 10C13.5467 10.9406 13.1726 11.8424 12.5075 12.5075C11.8424 13.1726 10.9406 13.5467 10 13.5478V13.5478Z" fill="white"/>
</svg>
