<svg width="19" height="18" viewBox="0 0 19 18" fill="none" xmlns="http://www.w3.org/2000/svg">
<path fill-rule="evenodd" clip-rule="evenodd" d="M14.6725 11.4451L12.7675 11.2276C12.31 11.1751 11.86 11.3326 11.5375 11.6551L10.1575 13.0351C8.03503 11.9551 6.29503 10.2226 5.21503 8.09257L6.60253 6.70507C6.92503 6.38257 7.08253 5.93257 7.03003 5.47507L6.81253 3.58507C6.72253 2.82757 6.08503 2.25757 5.32003 2.25757H4.02253C3.17503 2.25757 2.47003 2.96257 2.52253 3.81007C2.92003 10.2151 8.04253 15.3301 14.44 15.7276C15.2875 15.7801 15.9925 15.0751 15.9925 14.2276V12.9301C16 12.1726 15.43 11.5351 14.6725 11.4451Z" fill="white"/>
</svg>
