<svg width="19" height="18" viewBox="0 0 19 18" fill="none" xmlns="http://www.w3.org/2000/svg">
<path d="M17.6656 10.3442C17.724 9.87662 17.7825 9.46753 17.7825 9C17.7825 4.32468 13.9838 0.467532 9.25 0.467532C8.78247 0.467532 8.37338 0.525974 7.90584 0.584416C7.1461 0.175325 6.32792 0 5.50974 0C2.58766 0 0.25 2.33766 0.25 5.25974C0.25 6.07792 0.425325 6.8961 0.834416 7.65584C0.775974 8.12338 0.717532 8.53247 0.717532 9C0.717532 13.6753 4.51623 17.5325 9.25 17.5325C9.71753 17.5325 10.1266 17.474 10.5942 17.4156C11.3539 17.7662 12.1721 18 12.9903 18C15.9123 18 18.25 15.6623 18.25 12.7403C18.25 11.9221 18.0162 11.1039 17.6656 10.3442ZM12.8149 12.0974C12.6396 12.4481 12.4058 12.7403 12.0552 12.974C11.7045 13.2078 11.3539 13.3831 10.8864 13.5C10.4188 13.6169 9.89286 13.6753 9.30844 13.6753C8.08117 13.6753 7.08766 13.3831 6.38636 12.8571C5.97727 12.5065 5.62662 12.0974 5.4513 11.5714C5.21753 11.1039 5.62662 10.5195 6.21104 10.5195H6.38636C6.73701 10.5195 7.08766 10.7532 7.20455 11.0455C7.32143 11.3377 7.49675 11.5714 7.73052 11.7468C8.08117 12.039 8.60714 12.1558 9.25 12.1558C9.83442 12.1558 10.3019 12.039 10.6526 11.8636C11.0032 11.6883 11.1786 11.3377 11.1786 10.987C11.1786 10.8117 11.1201 10.6948 11.0617 10.5779C11.0032 10.461 10.8279 10.3442 10.711 10.2857C10.5357 10.1688 10.3604 10.1104 10.0682 10.0519C9.83442 9.99351 9.54221 9.87662 9.19156 9.81818L8.84091 9.7013C8.43182 9.58442 7.96429 9.46753 7.61364 9.35065C7.20455 9.23377 6.8539 9.05844 6.56169 8.88312C6.26948 8.70779 6.03571 8.47403 5.86039 8.12338C5.68507 7.83117 5.62662 7.42208 5.62662 6.95455C5.62662 6.48701 5.74351 6.07792 5.91883 5.72727C6.09416 5.37662 6.38636 5.08442 6.67857 4.90909C7.02922 4.67532 7.37987 4.5 7.8474 4.44156C8.25649 4.32468 8.72403 4.26623 9.25 4.26623C9.83442 4.26623 10.3019 4.32468 10.7695 4.44156C11.237 4.55844 11.5877 4.73377 11.9383 5.02597C12.289 5.25974 12.5227 5.55195 12.6981 5.96104C12.9903 6.48701 12.5812 7.18831 11.9383 7.18831H11.763C11.4123 7.18831 11.1201 7.01299 10.9448 6.72078C10.8279 6.54545 10.711 6.37013 10.5357 6.19481C10.2435 5.96104 9.77597 5.84416 9.25 5.84416C8.72403 5.84416 8.31494 5.96104 8.02273 6.13636C7.73052 6.31169 7.61364 6.6039 7.61364 6.8961C7.61364 7.07143 7.67208 7.18831 7.73052 7.3052C7.78896 7.42208 7.90584 7.53896 8.08117 7.5974C8.25649 7.65584 8.43182 7.77273 8.66558 7.83117C8.89935 7.88961 9.19156 7.94805 9.54221 8.06494C9.89286 8.12338 10.1851 8.24026 10.5357 8.2987C10.8279 8.35714 11.1201 8.47403 11.4123 8.53247C11.7045 8.64935 11.9383 8.76623 12.1721 8.88312C12.4058 9 12.5812 9.17533 12.7565 9.35065C12.9318 9.52597 13.0487 9.75974 13.1071 9.99351C13.224 10.2273 13.224 10.5779 13.224 10.9286C13.1071 11.3377 12.9903 11.7468 12.8149 12.0974Z" fill="white"/>
</svg>
