<svg width="18" height="18" viewBox="0 0 18 18" fill="none" xmlns="http://www.w3.org/2000/svg">
<path d="M9.80387 14.7272C3.65397 14.7272 0.146159 10.4275 0 3.27271H3.08057C3.18176 8.52414 5.45284 10.7485 7.25172 11.2072V3.27271H10.1524V7.80178C11.9288 7.60686 13.7951 5.54298 14.4247 3.27271H17.3254C17.0882 4.45013 16.6152 5.56497 15.9362 6.54748C15.2572 7.52999 14.3867 8.35904 13.3791 8.98278C14.5038 9.5527 15.4972 10.3594 16.2937 11.3496C17.0902 12.3398 17.6718 13.491 18 14.7272H14.807C14.5124 13.6535 13.9135 12.6923 13.0855 11.9641C12.2575 11.2359 11.2372 10.7732 10.1524 10.6339V14.7272H9.80387V14.7272Z" fill="white"/>
</svg>
