<svg width="18" height="18" viewBox="0 0 18 18" fill="none" xmlns="http://www.w3.org/2000/svg">
<path d="M13.3839 0.427237C10.4799 -0.142412 7.46422 -0.142412 4.56021 0.427237C3.27574 0.712061 1.6562 2.30708 1.37696 3.56031C0.874346 6.0098 0.874346 8.51625 1.37696 10.9657C1.71204 12.219 3.33159 13.814 4.56021 14.0988C4.61605 14.0988 4.6719 14.1558 4.6719 14.2127V17.8015C4.6719 17.9724 4.89529 18.0864 5.00698 17.9155L6.68237 16.1496C6.68237 16.1496 8.02269 14.7254 8.24607 14.4976C8.24607 14.4976 8.30192 14.4406 8.35777 14.4406C10.0332 14.4976 11.7644 14.3267 13.4398 14.0419C14.7243 13.757 16.3438 12.162 16.623 10.9088C17.1257 8.45929 17.1257 5.95283 16.623 3.50334C16.288 2.30708 14.6684 0.712061 13.3839 0.427237ZM13.4398 11.1366C13.1606 11.7063 12.8255 12.162 12.267 12.4468C12.0995 12.5038 11.9319 12.5608 11.7644 12.6177C11.541 12.5608 11.3735 12.5038 11.2059 12.4468C9.41885 11.7063 7.74346 10.6809 6.40314 9.19983C5.67714 8.34536 5.06283 7.37696 4.56021 6.35159C4.33682 5.8389 4.11344 5.38318 3.9459 4.8705C3.77836 4.41478 4.05759 3.95906 4.33682 3.61727C4.61605 3.27548 4.95113 3.04762 5.34206 2.87673C5.62129 2.70583 5.90052 2.81976 6.12391 3.04762C6.57068 3.61727 7.01745 4.18692 7.35253 4.81353C7.57592 5.21229 7.52007 5.66801 7.12914 5.95283C7.01745 6.0098 6.9616 6.06676 6.84991 6.18069C6.79406 6.23766 6.68237 6.29462 6.62652 6.40855C6.51483 6.57945 6.51483 6.75034 6.57068 6.92124C7.01745 8.23143 7.85515 9.2568 9.13961 9.82645C9.363 9.94038 9.53054 9.99734 9.80977 9.99734C10.2007 9.94038 10.3682 9.48466 10.6475 9.2568C10.9267 9.02894 11.2618 9.02894 11.5969 9.19983C11.8761 9.37073 12.1553 9.59859 12.4904 9.82645C12.7696 10.0543 13.0489 10.2252 13.3281 10.4531C13.4956 10.567 13.5515 10.8518 13.4398 11.1366ZM11.0942 6.86427C10.9825 6.86427 11.0384 6.86427 11.0942 6.86427C10.8709 6.86427 10.815 6.75034 10.7592 6.57945C10.7592 6.46552 10.7592 6.29462 10.7033 6.18069C10.6475 5.95283 10.5358 5.72497 10.3124 5.55408C10.2007 5.49711 10.089 5.44015 9.97731 5.38318C9.80977 5.32622 9.69808 5.32622 9.53054 5.32622C9.363 5.26925 9.30715 5.15532 9.30715 4.98443C9.30715 4.8705 9.47469 4.75657 9.58639 4.75657C10.4799 4.81354 11.1501 5.32622 11.2618 6.40855C11.2618 6.46552 11.2618 6.57945 11.2618 6.63641C11.2618 6.75034 11.2059 6.86427 11.0942 6.86427ZM10.5358 4.35782C10.2565 4.24389 9.97731 4.12996 9.64223 4.07299C9.53054 4.07299 9.363 4.01603 9.25131 4.01603C9.08377 4.01603 8.97208 3.9021 9.02792 3.7312C9.02792 3.56031 9.13962 3.44638 9.30715 3.50334C9.86562 3.56031 10.3682 3.67424 10.8709 3.9021C11.8761 4.41478 12.4346 5.26925 12.6021 6.40855C12.6021 6.46552 12.6021 6.52248 12.6021 6.57945C12.6021 6.69338 12.6021 6.80731 12.6021 6.9782C12.6021 7.03517 12.6021 7.09213 12.6021 7.1491C12.5462 7.37696 12.1553 7.43392 12.0995 7.1491C12.0995 7.09213 12.0436 6.9782 12.0436 6.92124C12.0436 6.40855 11.9319 5.89587 11.7086 5.44015C11.3735 4.92746 10.9825 4.58568 10.5358 4.35782ZM13.5515 7.77571C13.3839 7.77571 13.2722 7.60482 13.2722 7.43392C13.2722 7.09213 13.2164 6.75034 13.1606 6.40855C12.9372 4.58567 11.4852 3.10459 9.75393 2.81976C9.4747 2.7628 9.19546 2.7628 8.97208 2.70583C8.80454 2.70583 8.58115 2.70583 8.5253 2.47797C8.46946 2.30708 8.637 2.13618 8.80454 2.13618C8.86038 2.13618 8.91623 2.13618 8.91623 2.13618C11.2059 2.19315 9.02792 2.13618 8.91623 2.13618C11.2618 2.19315 13.2164 3.78817 13.6073 6.18069C13.6632 6.57945 13.719 6.9782 13.719 7.43392C13.8307 7.60482 13.719 7.77571 13.5515 7.77571Z" fill="white"/>
</svg>
