<svg width="19" height="18" viewBox="0 0 19 18" fill="none" xmlns="http://www.w3.org/2000/svg">
<path d="M15.6159 2.625C13.9225 0.937499 11.6646 0 9.28136 0C4.32665 0 0.312717 4 0.312717 8.9375C0.312717 10.5 0.751742 12.0625 1.50436 13.375L0.25 18L5.01655 16.75C6.33362 17.4375 7.77613 17.8125 9.28136 17.8125C14.2361 17.8125 18.25 13.8125 18.25 8.875C18.1873 6.5625 17.3092 4.3125 15.6159 2.625ZM13.6089 12.125C13.4207 12.625 12.5427 13.125 12.1037 13.1875C11.7273 13.25 11.2256 13.25 10.7239 13.125C10.4103 13 9.97125 12.875 9.46951 12.625C7.21167 11.6875 5.76916 9.4375 5.64373 9.25C5.51829 9.125 4.70296 8.0625 4.70296 6.9375C4.70296 5.8125 5.26742 5.3125 5.45557 5.0625C5.64373 4.8125 5.8946 4.8125 6.08275 4.8125C6.20819 4.8125 6.39634 4.8125 6.52177 4.8125C6.64721 4.8125 6.83536 4.75 7.02352 5.1875C7.21167 5.625 7.65069 6.75 7.71341 6.8125C7.77613 6.9375 7.77613 7.0625 7.71341 7.1875C7.65069 7.3125 7.58798 7.4375 7.46254 7.5625C7.33711 7.6875 7.21167 7.875 7.14895 7.9375C7.02352 8.0625 6.89808 8.1875 7.02352 8.375C7.14895 8.625 7.58798 9.3125 8.27787 9.9375C9.15592 10.6875 9.84582 10.9375 10.0967 11.0625C10.3476 11.1875 10.473 11.125 10.5984 11C10.7239 10.875 11.1629 10.375 11.2883 10.125C11.4138 9.875 11.6019 9.9375 11.7901 10C11.9782 10.0625 13.1071 10.625 13.2953 10.75C13.5462 10.875 13.6716 10.9375 13.7343 11C13.797 11.1875 13.797 11.625 13.6089 12.125Z" fill="white"/>
</svg>
